<svg xmlns="http://www.w3.org/2000/svg" xmlns:xlink="http://www.w3.org/1999/xlink" width="28" height="32" viewBox="0 0 28 32">
  <defs>
    <clipPath id="clip-path">
      <rect id="矩形_60" data-name="矩形 60" width="28" height="32" transform="translate(392 1401)" fill="#fff" stroke="#707070" stroke-width="1"/>
    </clipPath>
  </defs>
  <g id="icon" transform="translate(-392 -1401)" clip-path="url(#clip-path)">
    <path id="e129d6aeedc113c51cf72089b0a53610" d="M13.262,6.542l3.308,5.516,3.75,6.248,2.47-4.942c2.924,4.08,3.21,5.992,3.21,6.578C26,23.834,22.124,28,16.352,28,13.24,28,6,27.214,6,19.942c0-2.528,1.356-6.8,7.262-13.4M14,0Q2,11.746,2,19.942C2,28.138,8.62,32,16.352,32S30,26.332,30,19.942Q30,15.12,22,6l-2,4Z" transform="translate(390 1401)" fill="#00bbc4"/>
  </g>
</svg>
