<svg xmlns="http://www.w3.org/2000/svg" width="125" height="127.5" viewBox="0 0 125 127.5">
  <g id="技术领先-鼠标移入" transform="translate(-695.5 -79)">
    <g id="组_1" data-name="组 1">
      <path id="路径_1" data-name="路径 1" d="M53.969.4A60.882,60.882,0,1,0,75.586,1.724" transform="translate(697 83)" fill="none" stroke="#00bbc4" stroke-linecap="round" stroke-width="3"/>
      <circle id="椭圆_1" data-name="椭圆 1" cx="5" cy="5" r="5" transform="translate(757 79)" fill="#00bbc4"/>
    </g>
    <g id="kexuejishu-" transform="translate(705.6 102.2)">
      <path id="路径_3" data-name="路径 3" d="M63.075,203.43a9.729,9.729,0,0,1-6.758-2.805,9.512,9.512,0,1,1,13.452,0A9.211,9.211,0,0,1,63.075,203.43Zm0-17.723a7.894,7.894,0,0,0-5.8,2.423,8.234,8.234,0,1,0,5.8-2.423ZM7.866,209.486a1.259,1.259,0,0,1-.893-.383,1.233,1.233,0,0,1,0-1.785l4.208-4.208a1.262,1.262,0,1,1,1.785,1.785L8.759,209.1A1.158,1.158,0,0,1,7.866,209.486Zm-.191,10.073a1.259,1.259,0,0,1-.893-.383,1.233,1.233,0,0,1,0-1.785l9.371-9.371a1.262,1.262,0,0,1,1.785,1.785l-9.371,9.372a1.259,1.259,0,0,1-.893.383Zm10.009-.255a1.259,1.259,0,0,1-.893-.383,1.233,1.233,0,0,1,0-1.785L21,212.929a1.262,1.262,0,0,1,1.785,1.785l-4.144,4.271A1.341,1.341,0,0,1,17.684,219.3ZM39.36,240.98a1.259,1.259,0,0,1-.893-.382,1.233,1.233,0,0,1,0-1.785l4.208-4.208a1.262,1.262,0,0,1,1.785,1.785L40.252,240.6a1.259,1.259,0,0,1-.893.382Zm-.191,10.009a1.259,1.259,0,0,1-.893-.383,1.233,1.233,0,0,1,0-1.785l9.371-9.371a1.262,1.262,0,0,1,1.785,1.785l-9.371,9.371A1.259,1.259,0,0,1,39.168,250.989Zm10.009-.191a1.259,1.259,0,0,1-.893-.383,1.232,1.232,0,0,1,0-1.785l4.208-4.208a1.262,1.262,0,1,1,1.785,1.785l-4.208,4.208A1.259,1.259,0,0,1,49.177,250.8Z" transform="translate(0 -164.189)" fill="#00bbc4"/>
      <path id="路径_4" data-name="路径 4" d="M339.326,60.391a1.259,1.259,0,0,1-.893-.383L319.754,41.33a1.251,1.251,0,0,1-.319-1.211A48.333,48.333,0,0,1,365.911,4.8h7.905a1.279,1.279,0,0,1,1.275,1.275V13.98a48.39,48.39,0,0,1-35.318,46.475,1.244,1.244,0,0,0-.446-.064ZM322.049,40.055l17.659,17.659a45.788,45.788,0,0,0,32.768-43.8V7.286h-6.63A45.788,45.788,0,0,0,322.049,40.055Z" transform="translate(-286.691 0)" fill="#00bbc4"/>
      <path id="路径_5" data-name="路径 5" d="M138.586,285.111a1.259,1.259,0,0,1-.893-.383l-11.475-11.475a1.233,1.233,0,0,1,0-1.785l6.758-6.758a1.232,1.232,0,0,1,.574-.319,45.361,45.361,0,0,0,16.257-8.352,1.191,1.191,0,0,1,1.275-.191,1.266,1.266,0,0,1,.765,1.02c.765,8.033-3.953,18.679-12.3,27.732A1.211,1.211,0,0,1,138.586,285.111Zm-9.69-12.75,9.626,9.626c6.566-7.4,10.519-15.683,10.838-22.377a48.277,48.277,0,0,1-14.79,7.2ZM108.75,255.275a1.259,1.259,0,0,1-.893-.383L96.383,243.417a1.233,1.233,0,0,1,0-1.785c8.8-8.1,19.125-12.814,27.094-12.368a1.242,1.242,0,0,1,1.084.765,1.423,1.423,0,0,1-.127,1.339,45.457,45.457,0,0,0-7.905,15.3,1.247,1.247,0,0,1-.128,1.594l-6.758,6.63A1.259,1.259,0,0,1,108.75,255.275Zm-9.627-12.687,9.627,9.626,5.036-5.036V246.6a47.781,47.781,0,0,1,7.013-14.79c-6.566.574-14.535,4.526-21.676,10.774Z" transform="translate(-82.46 -205.451)" fill="#00bbc4"/>
    </g>
  </g>
</svg>
