<svg xmlns="http://www.w3.org/2000/svg" width="125" height="127.5" viewBox="0 0 125 127.5">
  <g id="定制开发-鼠标移入" transform="translate(-695.5 -79)">
    <g id="组_1" data-name="组 1">
      <path id="路径_1" data-name="路径 1" d="M53.969.4A60.882,60.882,0,1,0,75.586,1.724" transform="translate(697 83)" fill="none" stroke="#00bbc4" stroke-linecap="round" stroke-width="3"/>
      <circle id="椭圆_1" data-name="椭圆 1" cx="5" cy="5" r="5" transform="translate(757 79)" fill="#00bbc4"/>
    </g>
    <g id="kexuejishu--3" transform="translate(518.2 97)">
      <path id="路径_8" data-name="路径 8" d="M262.837,85.431a1.339,1.339,0,0,1-1.026-.513l-8.335-11.477-.192-.385L243.73,43.818a1.32,1.32,0,0,1,.769-1.6,12.141,12.141,0,0,0,6.476-5.642,1.452,1.452,0,0,1,1.218-.705,1.235,1.235,0,0,1,1.09.9l10.644,32.765a.813.813,0,0,1,.064.385v14.17a1.311,1.311,0,0,1-.9,1.218C263.094,85.431,262.966,85.431,262.837,85.431Zm-7.181-13.337,5.9,8.079v-10l-9.81-30.008a14.6,14.6,0,0,1-5.194,4.039l9.1,27.892ZM218.082,85.431a.813.813,0,0,1-.385-.064,1.311,1.311,0,0,1-.9-1.218V69.978a.813.813,0,0,1,.064-.385l10.644-32.765a1.235,1.235,0,0,1,1.09-.9,1.124,1.124,0,0,1,1.218.705,11.918,11.918,0,0,0,6.476,5.642,1.263,1.263,0,0,1,.769,1.6l-9.425,29.174-.192.385-8.335,11.477A1.339,1.339,0,0,1,218.082,85.431Zm1.282-15.26v10l5.9-8.079,9.1-27.956a15.186,15.186,0,0,1-5.194-4.039Zm24.686-50.59a.48.48,0,0,1-.321-.064,12.328,12.328,0,0,0-6.476,0,1.311,1.311,0,0,1-1.09-.192,1.339,1.339,0,0,1-.513-1.026V5.282A1.286,1.286,0,0,1,236.933,4h7.181A1.286,1.286,0,0,1,245.4,5.282V18.3a1.339,1.339,0,0,1-.513,1.026,1.41,1.41,0,0,1-.834.256ZM240.46,16.5a14.018,14.018,0,0,1,2.308.192V6.565h-4.617V16.7A14.018,14.018,0,0,1,240.46,16.5Z" transform="translate(0)" fill="#00bbc4"/>
      <path id="路径_9" data-name="路径 9" d="M345.691,189.046a14.6,14.6,0,0,1-4.937-.9,14.45,14.45,0,0,1-7.887-6.8,14.789,14.789,0,0,1-1.667-6.8,14.619,14.619,0,0,1,10.58-13.978,13.762,13.762,0,0,1,7.887,0,14.487,14.487,0,0,1,1.09,27.571A15.932,15.932,0,0,1,345.691,189.046Zm0-26.481a11.493,11.493,0,0,0-3.27.449,12,12,0,0,0-8.72,11.477,11.274,11.274,0,0,0,1.411,5.578,11.927,11.927,0,0,0,14.619,5.642,12.033,12.033,0,0,0,7.887-11.221,11.946,11.946,0,0,0-8.72-11.477A13.337,13.337,0,0,0,345.691,162.565Z" transform="translate(-105.231 -143.497)" fill="#00bbc4"/>
      <path id="路径_10" data-name="路径 10" d="M422.223,258.845a7.822,7.822,0,1,1,7.822-7.822A7.854,7.854,0,0,1,422.223,258.845Zm0-14.363a6.54,6.54,0,1,0,6.54,6.54A6.568,6.568,0,0,0,422.223,244.482Z" transform="translate(-181.763 -220.028)" fill="#00bbc4"/>
    </g>
    <g id="路径_11" data-name="路径 11" transform="translate(722 146)" fill="none">
      <path d="M36,0C55.882,0,72,5.373,72,12S55.882,24,36,24,0,18.627,0,12,16.118,0,36,0Z" stroke="none"/>
      <path d="M 36 3 C 31.27967071533203 3 26.70598983764648 3.307388305664062 22.40599822998047 3.91363525390625 C 18.2987060546875 4.492717742919922 14.62698745727539 5.316059112548828 11.49283599853516 6.36076545715332 C 8.558292388916016 7.338953018188477 6.204521179199219 8.488553047180176 4.68597412109375 9.685294151306152 C 3.614517211914062 10.52970600128174 3 11.37337684631348 3 12 C 3 12.62662315368652 3.614517211914062 13.47029399871826 4.68597412109375 14.31470584869385 C 6.204521179199219 15.51144695281982 8.558292388916016 16.66104698181152 11.49283599853516 17.63923645019531 C 14.62698745727539 18.68394088745117 18.2987060546875 19.50728225708008 22.40599822998047 20.08636474609375 C 26.70598983764648 20.69261169433594 31.27967071533203 21 36 21 C 40.72032928466797 21 45.29401397705078 20.69261169433594 49.59400177001953 20.08636474609375 C 53.7012939453125 19.50728225708008 57.37301254272461 18.68394088745117 60.50716400146484 17.63923645019531 C 63.44170379638672 16.66104698181152 65.79547882080078 15.51144695281982 67.31402587890625 14.31470584869385 C 68.38548278808594 13.47029399871826 69 12.62662315368652 69 12 C 69 11.37337684631348 68.38548278808594 10.52970600128174 67.31402587890625 9.685294151306152 C 65.79547882080078 8.488553047180176 63.44170379638672 7.338953018188477 60.50716400146484 6.36076545715332 C 57.37301254272461 5.316059112548828 53.7012939453125 4.492717742919922 49.59400177001953 3.91363525390625 C 45.29401397705078 3.307388305664062 40.72032928466797 3 36 3 M 36 0 C 55.88224792480469 0 72 5.372589111328125 72 12 C 72 18.62741088867188 55.88224792480469 24 36 24 C 16.11775207519531 24 0 18.62741088867188 0 12 C 0 5.372589111328125 16.11775207519531 0 36 0 Z" stroke="none" fill="#00bbc4"/>
    </g>
  </g>
</svg>
