<svg xmlns="http://www.w3.org/2000/svg" width="125" height="127.5" viewBox="0 0 125 127.5">
  <g id="安全稳定-鼠标移入" transform="translate(-695.5 -79)">
    <g id="组_1" data-name="组 1">
      <path id="路径_1" data-name="路径 1" d="M53.969.4A60.882,60.882,0,1,0,75.586,1.724" transform="translate(697 83)" fill="none" stroke="#00bbc4" stroke-linecap="round" stroke-width="3"/>
      <circle id="椭圆_1" data-name="椭圆 1" cx="5" cy="5" r="5" transform="translate(757 79)" fill="#00bbc4"/>
    </g>
    <g id="anquanwenti" transform="translate(539.077 34.949)">
      <path id="路径_12" data-name="路径 12" d="M357.873,401.637a3.643,3.643,0,0,1-2.723-1.226l-7.528-8.519a1.662,1.662,0,0,1,2.491-2.2l7.776,8.8,12.45-15.291a1.662,1.662,0,0,1,2.576,2.1l-12.213,15a3.652,3.652,0,0,1-2.827,1.339" transform="translate(-141.285 -282.879)" fill="#00bbc4"/>
      <path id="路径_13" data-name="路径 13" d="M220.072,87.467c-6.551,4.428-13.122,8.307-19.531,8.723l-.3.019v24.1c0,6.709,6.729,14.818,20,21.289l.132.064.134-.058c13.223-5.83,19.928-13.939,19.928-21.3V96.061l-.273-.037a42.032,42.032,0,0,1-19.724-8.546l-.181-.138-.188.128Zm-.446,57.516c-15.278-7.293-22.7-16.325-22.7-24.68V92.929h1.662c6.73,0,13.726-3.982,20.792-9.026l1.067-.762.988.859a38.263,38.263,0,0,0,20.854,8.939l1.475.168v27.2c0,8.962-7.659,18.219-22.762,24.707l-.694.3Z" transform="translate(-1 -5.09)" fill="#00bbc4"/>
    </g>
    <g id="椭圆_3" data-name="椭圆 3" transform="translate(715 101)" fill="none" stroke="#00bbc4" stroke-width="2">
      <circle cx="43" cy="43" r="43" stroke="none"/>
      <circle cx="43" cy="43" r="42" fill="none"/>
    </g>
  </g>
</svg>
