<svg xmlns="http://www.w3.org/2000/svg" width="125" height="127.5" viewBox="0 0 125 127.5">
  <g id="快速上线-鼠标移入" transform="translate(-695.5 -79)">
    <g id="组_1" data-name="组 1">
      <path id="路径_1" data-name="路径 1" d="M53.969.4A60.882,60.882,0,1,0,75.586,1.724" transform="translate(697 83)" fill="none" stroke="#00bbc4" stroke-linecap="round" stroke-width="3"/>
      <circle id="椭圆_1" data-name="椭圆 1" cx="5" cy="5" r="5" transform="translate(757 79)" fill="#00bbc4"/>
    </g>
    <g id="组_3" data-name="组 3" transform="translate(1 2.451)">
      <path id="路径_2" data-name="路径 2" d="M-1974.991,44.2a12.55,12.55,0,0,1-2.507.251,12.5,12.5,0,0,1-12.5-12.5,12.507,12.507,0,0,1,8.306-11.78A26.056,26.056,0,0,1-1956.315,0a26.055,26.055,0,0,1,25.322,19.928,12.507,12.507,0,0,1,9.057,12.021,12.5,12.5,0,0,1-12.5,12.5" transform="translate(2713 107.549)" fill="none" stroke="#00bbc4" stroke-linecap="round" stroke-width="3"/>
      <g id="组_2" data-name="组 2">
        <line id="直线_2" data-name="直线 2" y2="38" transform="translate(757.5 126.5)" fill="none" stroke="#00bbc4" stroke-linecap="round" stroke-width="3"/>
        <line id="直线_3" data-name="直线 3" x1="16" y2="16" transform="translate(741.5 124.5)" fill="none" stroke="#00bbc4" stroke-linecap="round" stroke-width="3"/>
        <line id="直线_4" data-name="直线 4" x2="16" y2="16" transform="translate(757.5 124.5)" fill="none" stroke="#00bbc4" stroke-linecap="round" stroke-width="3"/>
      </g>
      <line id="直线_5" data-name="直线 5" x2="28" transform="translate(744.5 171.5)" fill="none" stroke="#00bbc4" stroke-linecap="round" stroke-width="3"/>
    </g>
  </g>
</svg>
