<svg xmlns="http://www.w3.org/2000/svg" width="125" height="127.5" viewBox="0 0 125 127.5">
  <g id="专属客服" transform="translate(-695.5 -79)">
    <g id="组_1" data-name="组 1">
      <path id="路径_1" data-name="路径 1" d="M53.969.4A60.882,60.882,0,1,0,75.586,1.724" transform="translate(697 83)" fill="none" stroke="#00bbc4" stroke-linecap="round" stroke-width="3"/>
      <circle id="椭圆_1" data-name="椭圆 1" cx="5" cy="5" r="5" transform="translate(757 79)" fill="#00bbc4"/>
    </g>
    <g id="webicon302" transform="translate(544.4 -121)">
      <path id="路径_64" data-name="路径 64" d="M249.125,250.256c.021.066.025.136.045.2a37.049,37.049,0,0,0-71,0c.021-.066.025-.136.045-.2a11.092,11.092,0,0,0,0,21.622c-.008-.025-.008-.054-.016-.078a2.052,2.052,0,0,0,3.908-1.252,32.957,32.957,0,1,1,40.831,22.116,6.169,6.169,0,0,0-5.148-2.768H209.55a6.178,6.178,0,0,0,0,12.356h8.237a6.154,6.154,0,0,0,6.12-5.589A37.2,37.2,0,0,0,249.17,271.68c-.021.066-.025.136-.045.2a11.092,11.092,0,0,0,0-21.622Zm-71.971,4.679c-.066.387-.128.778-.177,1.17C177.026,255.708,177.087,255.321,177.153,254.934Zm-.14,11.631c.054.375.177.733.243,1.1C177.19,267.294,177.071,266.94,177.013,266.565Zm73.17.634c.066-.387.128-.774.177-1.166C250.311,266.425,250.249,266.812,250.183,267.2Zm0-12.265c.066.387.124.774.177,1.17C250.311,255.708,250.249,255.321,250.183,254.934Z" fill="#00bbc4"/>
      <path id="路径_65" data-name="路径 65" d="M381.72,575.74a20.612,20.612,0,0,0,19.464-13.851,2.059,2.059,0,1,0-3.892-1.347,16.482,16.482,0,0,1-31.157-.041,2.058,2.058,0,0,0-3.892,1.339A20.593,20.593,0,0,0,381.72,575.74Z" transform="translate(-167.752 -291.981)" fill="#00bbc4"/>
    </g>
  </g>
</svg>
