<svg xmlns="http://www.w3.org/2000/svg" width="125" height="127.5" viewBox="0 0 125 127.5">
  <g id="经验丰富-鼠标移入" transform="translate(-695.5 -79)">
    <g id="组_1" data-name="组 1">
      <path id="路径_1" data-name="路径 1" d="M53.969.4A60.882,60.882,0,1,0,75.586,1.724" transform="translate(697 83)" fill="none" stroke="#00bbc4" stroke-linecap="round" stroke-width="3"/>
      <circle id="椭圆_1" data-name="椭圆 1" cx="5" cy="5" r="5" transform="translate(757 79)" fill="#00bbc4"/>
    </g>
    <g id="组_8" data-name="组 8" transform="translate(-142 -141.5)">
      <g id="联合_1" data-name="联合 1" transform="translate(2863 254)" fill="none">
        <path d="M-1972,64a5,5,0,0,1-5-5V50.091A26.985,26.985,0,0,1-1990,27a27,27,0,0,1,27-27,27,27,0,0,1,27,27,26.982,26.982,0,0,1-13,23.092V59a5,5,0,0,1-5,5Z" stroke="none"/>
        <path d="M -1954 60.99990463256836 C -1952.8974609375 60.99990463256836 -1952.00048828125 60.10293960571289 -1952.00048828125 59.00040435791016 L -1952.00048828125 50.0919189453125 L -1952.00048828125 48.40417098999023 L -1950.557983398438 47.52792739868164 C -1947.0947265625 45.42404937744141 -1944.196899414062 42.45610427856445 -1942.177856445312 38.94496154785156 C -1940.098876953125 35.32944869995117 -1939 31.19894981384277 -1939 26.9999942779541 C -1939 23.75857353210449 -1939.634155273438 20.61576080322266 -1940.884765625 17.65884017944336 C -1942.093383789062 14.80128383636475 -1943.82421875 12.2343282699585 -1946.029296875 10.02928352355957 C -1948.234375 7.824239253997803 -1950.80126953125 6.093372821807861 -1953.658813476562 4.884772777557373 C -1956.61572265625 3.634128093719482 -1959.758544921875 3.000005960464478 -1963 3.000005960464478 C -1966.241333007812 3.000005960464478 -1969.384155273438 3.634128093719482 -1972.341064453125 4.884761333465576 C -1975.198608398438 6.093372821807861 -1977.765625 7.824239253997803 -1979.970703125 10.02929496765137 C -1982.17578125 12.23433971405029 -1983.906616210938 14.80129528045654 -1985.115234375 17.65884017944336 C -1986.365844726562 20.61576080322266 -1987 23.75858306884766 -1987 26.9999942779541 C -1987 31.19837188720703 -1985.901123046875 35.32862854003906 -1983.822021484375 38.94425201416016 C -1981.803100585938 42.45537185668945 -1978.905517578125 45.42342758178711 -1975.442626953125 47.52752685546875 L -1974.000366210938 48.40381622314453 L -1974.000366210938 50.09136199951172 L -1974.000366210938 59.00040435791016 C -1974.000366210938 60.10293960571289 -1973.10302734375 60.99990463256836 -1972 60.99990463256836 L -1954 60.99990463256836 M -1954 63.99990463256836 L -1972 63.99990463256836 C -1974.761108398438 63.99990463256836 -1977.000366210938 61.76160430908203 -1977.000366210938 59.00040435791016 L -1977.000366210938 50.09136199951172 C -1984.793823242188 45.35600662231445 -1990 36.78607177734375 -1990 26.9999942779541 C -1990 12.08790588378906 -1977.911987304688 5.964491265331162e-06 -1963 5.964491265331162e-06 C -1948.087890625 5.964491265331162e-06 -1936 12.08790588378906 -1936 26.9999942779541 C -1936 36.78697204589844 -1941.205688476562 45.35682678222656 -1949.00048828125 50.0919189453125 L -1949.00048828125 59.00040435791016 C -1949.00048828125 61.76160430908203 -1951.23876953125 63.99990463256836 -1954 63.99990463256836 Z" stroke="none" fill="#00bbc4"/>
      </g>
      <g id="组_4" data-name="组 4" transform="translate(0 39)">
        <line id="直线_6" data-name="直线 6" x2="11" y2="10" transform="translate(889 249.5)" fill="none" stroke="#00bbc4" stroke-linecap="round" stroke-width="3"/>
        <line id="直线_7" data-name="直线 7" y1="10" x2="11" transform="translate(900 249.5)" fill="none" stroke="#00bbc4" stroke-linecap="round" stroke-width="3"/>
        <line id="直线_8" data-name="直线 8" y2="18.25" transform="translate(900.25 259.25)" fill="none" stroke="#00bbc4" stroke-linecap="round" stroke-width="3"/>
      </g>
      <line id="直线_9" data-name="直线 9" x2="20" transform="translate(890.5 322.5)" fill="none" stroke="#00bbc4" stroke-linecap="round" stroke-width="3"/>
      <line id="直线_10" data-name="直线 10" x2="12" transform="translate(894.5 327.5)" fill="none" stroke="#00bbc4" stroke-linecap="round" stroke-width="3"/>
      <line id="直线_11" data-name="直线 11" y2="6" transform="translate(899.5 241.5)" fill="none" stroke="#00bbc4" stroke-linecap="round" stroke-width="4"/>
      <g id="组_5" data-name="组 5" transform="translate(-0.379)">
        <line id="直线_12" data-name="直线 12" y2="6" transform="translate(928.621 251.379) rotate(45)" fill="none" stroke="#00bbc4" stroke-linecap="round" stroke-width="4"/>
        <line id="直线_15" data-name="直线 15" y1="6" transform="translate(874.621 255.621) rotate(135)" fill="none" stroke="#00bbc4" stroke-linecap="round" stroke-width="4"/>
      </g>
      <g id="组_7" data-name="组 7" transform="translate(-0.379)">
        <line id="直线_17" data-name="直线 17" y1="6" transform="translate(924.379 304.379) rotate(-45)" fill="none" stroke="#00bbc4" stroke-linecap="round" stroke-width="4"/>
        <line id="直线_16" data-name="直线 16" y2="6" transform="translate(870.379 308.621) rotate(-135)" fill="none" stroke="#00bbc4" stroke-linecap="round" stroke-width="4"/>
      </g>
      <g id="组_6" data-name="组 6" transform="translate(-0.379)">
        <line id="直线_13" data-name="直线 13" x1="6.121" transform="translate(933.379 280.621)" fill="none" stroke="#00bbc4" stroke-linecap="round" stroke-width="4"/>
        <line id="直线_14" data-name="直线 14" x1="6.121" transform="translate(860.379 280.621)" fill="none" stroke="#00bbc4" stroke-linecap="round" stroke-width="4"/>
      </g>
    </g>
  </g>
</svg>
