<svg xmlns="http://www.w3.org/2000/svg" width="140" height="140" viewBox="0 0 140 140">
  <g id="需求沟通" transform="translate(-377 -491)">
    <g id="矩形_19" data-name="矩形 19" transform="translate(377 491)" fill="none" stroke="#00bbc4" stroke-width="2">
      <rect width="140" height="140" rx="34" stroke="none"/>
      <rect x="1" y="1" width="138" height="138" rx="33" fill="none"/>
    </g>
    <text id="需求沟通-2" data-name="需求沟通" transform="translate(411 601)" font-size="18" font-family="PingFangSC-Light, PingFang SC" font-weight="300"><tspan x="0" y="0">需求沟通</tspan></text>
    <g id="goutongnengli" transform="translate(339 328.6)">
      <path id="路径_25" data-name="路径 25" d="M91.242,394.378a1.662,1.662,0,0,1-.241-.018,1.8,1.8,0,0,1-1.206-.7,1.85,1.85,0,0,1-.376-1.112v-3.724H85.412A2.415,2.415,0,0,1,83,386.413v-19A2.415,2.415,0,0,1,85.412,365h31.473a2.415,2.415,0,0,1,2.412,2.412v19a2.415,2.415,0,0,1-2.412,2.412H99.1L92.348,394A1.808,1.808,0,0,1,91.242,394.378ZM85.412,367a.409.409,0,0,0-.412.412v19a.409.409,0,0,0,.412.412h6V392.2l7-5.371h18.472a.409.409,0,0,0,.412-.412v-19a.409.409,0,0,0-.412-.412Z" transform="translate(0 -158.978)" fill="#454545"/>
      <path id="路径_26" data-name="路径 26" d="M172.265,518.53a3.265,3.265,0,1,1,3.265-3.265A3.269,3.269,0,0,1,172.265,518.53Zm0-4.53a1.265,1.265,0,1,0,1.265,1.265A1.263,1.263,0,0,0,172.265,514Zm9.412,4.53a3.265,3.265,0,1,1,3.265-3.265A3.269,3.269,0,0,1,181.677,518.53Zm0-4.53a1.265,1.265,0,1,0,1.265,1.265A1.263,1.263,0,0,0,181.677,514Zm9.412,4.53a3.265,3.265,0,1,1,3.265-3.265A3.269,3.269,0,0,1,191.09,518.53Zm0-4.53a1.265,1.265,0,1,0,1.265,1.265A1.263,1.263,0,0,0,191.09,514Z" transform="translate(-80.941 -297.61)" fill="#454545"/>
      <path id="路径_27" data-name="路径 27" d="M748.265,352.53a3.265,3.265,0,1,1,3.265-3.265A3.269,3.269,0,0,1,748.265,352.53Zm0-4.53a1.265,1.265,0,1,0,1.265,1.265A1.263,1.263,0,0,0,748.265,348Z" transform="translate(-623.436 -141.567)" fill="#454545"/>
      <path id="路径_28" data-name="路径 28" d="M357.143,225.561a.992.992,0,0,1-.606-.206l-4.747-3.63A1,1,0,1,1,353,220.137l3.141,2.4v-4.159a1,1,0,0,1,1-1h5.106V197.4H330.3v5.424a1,1,0,1,1-2,0V196.4a1,1,0,0,1,1-1h33.949a1,1,0,0,1,1,1v21.978a1,1,0,0,1-1,1h-5.106v5.183a.992.992,0,0,1-.559.894A.957.957,0,0,1,357.143,225.561Z" transform="translate(-231.249)" fill="#454545"/>
    </g>
  </g>
</svg>
