<svg xmlns="http://www.w3.org/2000/svg" width="140" height="140" viewBox="0 0 140 140">
  <g id="方案确认" transform="translate(-574 -496)">
    <g id="矩形_20" data-name="矩形 20" transform="translate(574 496)" fill="none" stroke="#00bbc4" stroke-width="2">
      <rect width="140" height="140" rx="34" stroke="none"/>
      <rect x="1" y="1" width="138" height="138" rx="33" fill="none"/>
    </g>
    <text id="方案确认-2" data-name="方案确认" transform="translate(608 601)" font-size="18" font-family="PingFangSC-Light, PingFang SC" font-weight="300"><tspan x="0" y="0">方案确认</tspan></text>
    <g id="fanganguihua" transform="translate(556.2 455.6)">
      <path id="路径_29" data-name="路径 29" d="M237.737,266.1a2.407,2.407,0,0,0-2.377,2.432,2.445,2.445,0,0,0,.3,1.18l-5.232,5.353a.676.676,0,0,0-.09.125,2.333,2.333,0,0,0-1.26-.37,2.359,2.359,0,0,0-1.792.832l-6.768-4.178a2.383,2.383,0,1,0-4.695-.528,2.46,2.46,0,0,0,.548,1.55l-4.812,5.793a2.332,2.332,0,0,0-1.287-.386,2.432,2.432,0,1,0,2.377,2.432,2.5,2.5,0,0,0-.346-1.267l4.886-5.88c.005-.011.016-.016.021-.027a2.313,2.313,0,0,0,.989.218,2.34,2.34,0,0,0,1.861-.925l6.726,4.151a2.559,2.559,0,0,0-.085.642,2.377,2.377,0,1,0,4.753,0,2.484,2.484,0,0,0-.388-1.333.567.567,0,0,0,.112-.087l5.194-5.315a2.334,2.334,0,0,0,1.366.441,2.427,2.427,0,0,0-.005-4.852Zm-27.466,15.585a1.344,1.344,0,1,1,1.313-1.344A1.332,1.332,0,0,1,210.271,281.685Zm7.927-9.394a1.344,1.344,0,1,1,1.313-1.344A1.332,1.332,0,0,1,218.2,272.291Zm10.878,6.31a1.344,1.344,0,1,1,1.313-1.344A1.332,1.332,0,0,1,229.076,278.6Zm8.661-8.725a1.344,1.344,0,1,1,1.313-1.344A1.332,1.332,0,0,1,237.737,269.875Z" transform="translate(-136.261 -190.967)" fill="#454545"/>
      <path id="路径_30" data-name="路径 30" d="M110.911,96.861h-2.185V68.6a.885.885,0,0,0-.884-.885H88.692V65.226a.886.886,0,0,0-1.768,0v2.488H67.6a.885.885,0,0,0-.884.885V96.861H64.684a.885.885,0,0,0-.884.885v4.22a.885.885,0,0,0,.884.885H79.505l-6.476,8.113a.885.885,0,1,0,1.382,1.1l7.355-9.217H93.8l7.355,9.217a.885.885,0,0,0,.691.332.9.9,0,0,0,.552-.193.887.887,0,0,0,.139-1.244l-6.471-8.113h14.854a.885.885,0,0,0,.884-.885v-4.22A.893.893,0,0,0,110.911,96.861ZM68.487,69.488h38.471V96.866H68.487Zm41.54,31.592H65.568v-2.45h44.459Z" transform="translate(0)" fill="#454545"/>
    </g>
  </g>
</svg>
