<svg xmlns="http://www.w3.org/2000/svg" width="140" height="140" viewBox="0 0 140 140">
  <g id="报价确认" transform="translate(-771 -496)">
    <g id="矩形_21" data-name="矩形 21" transform="translate(771 496)" fill="none" stroke="#00bbc4" stroke-width="2">
      <rect width="140" height="140" rx="34" stroke="none"/>
      <rect x="1" y="1" width="138" height="138" rx="33" fill="none"/>
    </g>
    <text id="报价确认-2" data-name="报价确认" transform="translate(805 601)" font-size="18" font-family="PingFangSC-Light, PingFang SC" font-weight="300"><tspan x="0" y="0">报价确认</tspan></text>
    <g id="web-icon-" transform="translate(623.392 392.36)">
      <path id="路径_31" data-name="路径 31" d="M311.711,284.042a1.109,1.109,0,0,1-1.023-.976v-.3a.911.911,0,0,1,1.023-.976h13.966a1.056,1.056,0,0,1,.976.976v.3a1.062,1.062,0,0,1-.976.976Zm0,0,0-12.788a.915.915,0,0,1-.991-1.016,1.19,1.19,0,0,1,.991-1.311h9.441a1.068,1.068,0,0,1,.931,1.031v.3a1.044,1.044,0,0,1-.931,1Zm0,0,0,6.432a1.155,1.155,0,0,1-1.023-1.023v-.3a1.126,1.126,0,0,1,1.023-1h20.042a1.133,1.133,0,0,1,1.023,1v.248c-.31.566-.573,1.069-1.326,1.069H311.711Zm0,0" transform="translate(-107.336 -131.995)" fill="#454545"/>
      <path id="路径_32" data-name="路径 32" d="M232.455,150.583a1.082,1.082,0,0,1-1.2-1.194V133.732a2.655,2.655,0,0,0-2.658-2.69H201.678a2.665,2.665,0,0,0-2.665,2.69v33.7a2.707,2.707,0,0,0,2.665,2.743h15.51a1.164,1.164,0,1,1,0,2.327h-15.51a5.027,5.027,0,0,1-5.07-5.07v-33.7a5.243,5.243,0,0,1,5.07-5.092H228.6a5.039,5.039,0,0,1,5.062,5.092v15.655C233.656,150.148,233.346,150.583,232.455,150.583Zm0,0" fill="#454545"/>
      <path id="路径_33" data-name="路径 33" d="M604.939,562.752a10.012,10.012,0,1,0,2.883,7.029A9.863,9.863,0,0,0,604.939,562.752Zm-7.029,15.1a8.068,8.068,0,1,1,0-16.136,8.087,8.087,0,0,1,5.681,2.3,8,8,0,0,1,2.395,5.766A8.185,8.185,0,0,1,597.909,577.851Zm0,0" transform="translate(-368.252 -405.737)" fill="#454545"/>
      <path id="路径_34" data-name="路径 34" d="M638.547,498.34a.7.7,0,1,0,0-1.4h-1.984l2.3-2.317a.671.671,0,0,0-.132-.923.832.832,0,0,0-.573-.27.467.467,0,0,0-.34.132l-2.643,2.643-2.643-2.643a.47.47,0,0,0-.341-.132.832.832,0,0,0-.573.263.682.682,0,0,0-.132.931l2.3,2.317h-1.852a.7.7,0,1,0,0,1.4h2.5v1.394h-2.5a.7.7,0,1,0,0,1.4h2.5v1.644a.815.815,0,0,0,1.627,0V501.13h2.48a.7.7,0,1,0,0-1.4h-2.48V498.34Zm0,0-10.866-12.982a1.343,1.343,0,1,0,1.341-1.272A1.343,1.343,0,0,0,627.682,485.357Zm0,0" transform="translate(-405.589 -334.433)" fill="#454545"/>
    </g>
  </g>
</svg>
