<svg xmlns="http://www.w3.org/2000/svg" width="140" height="140" viewBox="0 0 140 140">
  <g id="产品开发" transform="translate(-1165 -496)">
    <g id="矩形_23" data-name="矩形 23" transform="translate(1165 496)" fill="none" stroke="#00bbc4" stroke-width="2">
      <rect width="140" height="140" rx="34" stroke="none"/>
      <rect x="1" y="1" width="138" height="138" rx="33" fill="none"/>
    </g>
    <text id="产品开发-2" data-name="产品开发" transform="translate(1199 601)" font-size="18" font-family="PingFangSC-Light, PingFang SC" font-weight="300"><tspan x="0" y="0">产品开发</tspan></text>
    <g id="navicon-bmfa" transform="translate(1190.52 489.28)">
      <path id="路径_44" data-name="路径 44" d="M29.363,76.2H21.717a1.236,1.236,0,0,1-1.237-1.259V31.979a1.236,1.236,0,0,1,1.237-1.259H57.226a1.236,1.236,0,0,1,1.237,1.259V52.073a1.237,1.237,0,1,1-2.474,0V33.238H22.954v40.44h6.409a1.259,1.259,0,0,1,0,2.518Z" transform="translate(0 0)" fill="#454545"/>
      <path id="路径_45" data-name="路径 45" d="M219.518,249.258H201.429a1.237,1.237,0,1,1,0-2.474h18.088a1.237,1.237,0,1,1,0,2.474Zm0,9.6H201.429a1.237,1.237,0,0,1,0-2.474h18.088a1.237,1.237,0,0,1,0,2.474Zm-13.56,9.6h-4.528a1.237,1.237,0,0,1,0-2.474h4.528a1.237,1.237,0,0,1,0,2.474Zm12.075,12.62a1.15,1.15,0,0,1-.891-.4l-6.087-6.483a1.248,1.248,0,0,1,.049-1.757l6.483-6.137a1.243,1.243,0,0,1,1.707,1.806l-5.592,5.3L218.949,279a1.248,1.248,0,0,1-.049,1.757A1.3,1.3,0,0,1,218.033,281.08Zm14.253,0a1.222,1.222,0,0,1-.841-.346,1.248,1.248,0,0,1-.049-1.757l5.271-5.592-5.592-5.3a1.243,1.243,0,1,1,1.707-1.806l6.483,6.137a1.248,1.248,0,0,1,.049,1.757L233.2,280.66A1.179,1.179,0,0,1,232.286,281.08Zm-9.4,2.474a1.015,1.015,0,0,1-.272-.025,1.245,1.245,0,0,1-.94-1.485L225.7,264.2a1.243,1.243,0,0,1,2.425.544L224.1,282.59A1.243,1.243,0,0,1,222.883,283.555Z" transform="translate(-171.171 -204.835)" fill="#454545"/>
    </g>
  </g>
</svg>
