<svg xmlns="http://www.w3.org/2000/svg" width="158" height="158" viewBox="0 0 158 158">
  <g id="公众号-icon" transform="translate(-881 -700)">
    <g id="椭圆_22" data-name="椭圆 22" transform="translate(881 700)" fill="none" stroke="#00bbc4" stroke-width="1">
      <circle cx="79" cy="79" r="79" stroke="none"/>
      <circle cx="79" cy="79" r="78.5" fill="none"/>
    </g>
    <path id="weixingongzhonghao" d="M122.371,110.9c-1.654,0-3.152,1.055-3.152,2.552s1.5,2.552,3.152,2.552a2.552,2.552,0,1,0,0-5.1Zm-14.416,5.1a2.552,2.552,0,1,0,0-5.1,2.587,2.587,0,1,0,0,5.1Zm25.38.455c-9.766,0-17.424,7.214-17.424,16.225a20.26,20.26,0,0,0,.6,4.35h-1.953a28.757,28.757,0,0,1-7.058-1.055l-7.214,3.607,2.1-6.159c-5.261-3.607-8.256-8.113-8.256-13.817,0-9.766,9.155-17.424,20.419-17.424,10.21,0,18.922,6.159,20.731,14.416a8.834,8.834,0,0,0-1.941-.144Zm-4.362,13.361c1.5,0,2.552-.9,2.552-1.953a2.373,2.373,0,0,0-2.552-2.1,2.255,2.255,0,0,0-2.1,2.1A2.116,2.116,0,0,0,128.974,129.824Zm11.264,0c1.5,0,2.552-.9,2.552-1.953a2.373,2.373,0,0,0-2.552-2.1,2.125,2.125,0,0,0-1.953,2.1A1.985,1.985,0,0,0,140.238,129.824Zm11.863,2.552c0,4.661-3.152,8.712-7.214,11.863l1.5,5.1-5.56-3.008a30.11,30.11,0,0,1-6.159.9c-9.766,0-17.424-6.6-17.424-14.871,0-8.113,7.657-14.871,17.424-14.871,9.179.012,17.436,6.771,17.436,14.883ZM123.138,175.84a50.1,50.1,0,1,0-50.1-50.1,50.1,50.1,0,0,0,50.1,50.1Zm0,2.636a52.738,52.738,0,1,1,52.738-52.738A52.74,52.74,0,0,1,123.138,178.476Z" transform="translate(836.6 653)" fill="#00bbc4"/>
  </g>
</svg>
