<svg xmlns="http://www.w3.org/2000/svg" width="158" height="158" viewBox="0 0 158 158">
  <g id="网络运营托管-icon" transform="translate(-1248 -700)">
    <g id="椭圆_23" data-name="椭圆 23" transform="translate(1248 700)" fill="none" stroke="#00bbc4" stroke-width="1">
      <circle cx="79" cy="79" r="79" stroke="none"/>
      <circle cx="79" cy="79" r="78.5" fill="none"/>
    </g>
    <path id="yunyingshang-xuanzhong" d="M159.6,121.344a48.574,48.574,0,0,0-48.5,48.5,42.449,42.449,0,0,0,.439,6.337l4.957-.627a43.626,43.626,0,0,1-.376-5.71,45.011,45.011,0,0,1,.5-6.525l10.792.063a73.073,73.073,0,0,0-.627,7.529l5.019.188a76.661,76.661,0,0,1,.69-7.717l22.713.063V174.8h5.019V163.507l25.034.063a75.192,75.192,0,0,1,.69,10.729,76.644,76.644,0,0,1-1.882,17.129l4.894,1.129a83.075,83.075,0,0,0,2.008-18.258,86.4,86.4,0,0,0-.69-10.729l12.423.063a40.787,40.787,0,0,1,.439,6.212,42.866,42.866,0,0,1-10.415,27.544,38.628,38.628,0,0,1-21.081,6.588,36.949,36.949,0,0,1-10.541-1.569,36.564,36.564,0,0,1-14.305-8.6l11.356-10.917-42.539-1.631,1.945,40.469L130.868,209a47.758,47.758,0,0,0,62.429-4.768,47.894,47.894,0,0,0,14.807-34.32,48.587,48.587,0,0,0-48.5-48.563Zm-18.133,8.972c-1.129,1.192-2.259,2.51-3.325,3.89-.439-.439-.878-.941-1.318-1.443C138.334,131.885,139.9,131.069,141.471,130.316Zm-13.3,28.046-10.541-.063a43.393,43.393,0,0,1,15.058-22.65,28.07,28.07,0,0,0,2.635,2.823A66.124,66.124,0,0,0,128.17,158.362Zm26.916.125-21.834-.063a59.883,59.883,0,0,1,6.023-16.752,32.236,32.236,0,0,0,15.811,5.584Zm0-16.313a27.007,27.007,0,0,1-13.113-4.768c3.7-5.145,8.219-8.6,13.113-9.725Zm24.532-10.917c-.439.565-.816,1.067-1.255,1.631a32.881,32.881,0,0,0-3.451-3.7A34.6,34.6,0,0,1,179.619,131.257ZM160.106,127.3c5.27.439,10.29,3.576,14.556,9.035a27.129,27.129,0,0,1-14.556,5.835Zm0,31.183V147.257a32.137,32.137,0,0,0,17.442-6.713v.063a57.988,57.988,0,0,1,6.713,18.007Zm29.3.063a64.705,64.705,0,0,0-7.529-20.58c-.188-.314-.376-.627-.565-.878a27.194,27.194,0,0,0,2.635-3.263,43.4,43.4,0,0,1,17.631,24.783Z" transform="translate(1167.896 607.656)" fill="#00bbc4"/>
  </g>
</svg>
