<svg xmlns="http://www.w3.org/2000/svg" width="158" height="158" viewBox="0 0 158 158">
  <g id="网站开发-icon" transform="translate(-514 -700)">
    <g id="椭圆_21" data-name="椭圆 21" transform="translate(514 700)" fill="none" stroke="#00bbc4" stroke-width="1">
      <circle cx="79" cy="79" r="79" stroke="none"/>
      <circle cx="79" cy="79" r="78.5" fill="none"/>
    </g>
    <path id="diannaoban" d="M212.235,168.572H138.024a9.888,9.888,0,0,0-9.895,9.882v51.882a9.889,9.889,0,0,0,9.895,9.882h74.211a9.889,9.889,0,0,0,9.895-9.882V178.455A9.888,9.888,0,0,0,212.235,168.572Zm-37.1,69.176a4.941,4.941,0,1,1,4.947-4.941A4.945,4.945,0,0,1,175.132,237.749ZM214.709,225.4H135.552V175.984h79.157V225.4ZM192.448,245.16H157.816a3.706,3.706,0,1,0,0,7.412h34.632a3.706,3.706,0,1,0,0-7.412Z" transform="translate(417.87 568.428)" fill="#00bbc4"/>
  </g>
</svg>
