<svg xmlns="http://www.w3.org/2000/svg" width="1146" height="327.5" viewBox="0 0 1146 327.5">
  <g id="架构" transform="translate(-388 -2581.5)">
    <line id="直线_30" data-name="直线 30" x2="984" transform="translate(468.5 2623.5)" fill="none" stroke="#707070" stroke-width="1"/>
    <line id="直线_31" data-name="直线 31" y2="42" transform="translate(955.5 2581.5)" fill="none" stroke="#707070" stroke-width="1"/>
    <g id="组_25" data-name="组 25">
      <line id="直线_32" data-name="直线 32" y2="42" transform="translate(469.5 2623.5)" fill="none" stroke="#707070" stroke-width="1"/>
      <g id="矩形_100" data-name="矩形 100" transform="translate(388 2666)" fill="#fff" stroke="#707070" stroke-width="1">
        <rect width="162" height="100" stroke="none"/>
        <rect x="0.5" y="0.5" width="161" height="99" fill="none"/>
      </g>
    </g>
    <g id="组_27" data-name="组 27" transform="translate(0 143)">
      <line id="直线_32-2" data-name="直线 32" y2="42" transform="translate(469.5 2623.5)" fill="none" stroke="#707070" stroke-width="1"/>
      <g id="矩形_100-2" data-name="矩形 100" transform="translate(388 2666)" fill="#fff" stroke="#707070" stroke-width="1">
        <rect width="162" height="100" stroke="none"/>
        <rect x="0.5" y="0.5" width="161" height="99" fill="none"/>
      </g>
    </g>
    <g id="组_28" data-name="组 28" transform="translate(197 143)">
      <line id="直线_32-3" data-name="直线 32" y2="42" transform="translate(469.5 2623.5)" fill="none" stroke="#707070" stroke-width="1"/>
      <g id="矩形_100-3" data-name="矩形 100" transform="translate(388 2666)" fill="#fff" stroke="#707070" stroke-width="1">
        <rect width="162" height="100" stroke="none"/>
        <rect x="0.5" y="0.5" width="161" height="99" fill="none"/>
      </g>
    </g>
    <g id="组_24" data-name="组 24" transform="translate(19)">
      <line id="直线_34" data-name="直线 34" y2="42" transform="translate(647.5 2623.5)" fill="none" stroke="#707070" stroke-width="1"/>
      <g id="矩形_101" data-name="矩形 101" transform="translate(566 2666)" fill="#fff" stroke="#707070" stroke-width="1">
        <rect width="162" height="100" stroke="none"/>
        <rect x="0.5" y="0.5" width="161" height="99" fill="none"/>
      </g>
    </g>
    <g id="组_23" data-name="组 23" transform="translate(38)">
      <line id="直线_35" data-name="直线 35" y2="42" transform="translate(825.5 2623.5)" fill="none" stroke="#707070" stroke-width="1"/>
      <g id="矩形_102" data-name="矩形 102" transform="translate(744 2666)" fill="#fff" stroke="#707070" stroke-width="1">
        <rect width="162" height="100" stroke="none"/>
        <rect x="0.5" y="0.5" width="161" height="99" fill="none"/>
      </g>
    </g>
    <g id="组_29" data-name="组 29" transform="translate(38 143)">
      <line id="直线_35-2" data-name="直线 35" y2="42" transform="translate(825.5 2623.5)" fill="none" stroke="#707070" stroke-width="1"/>
      <g id="矩形_102-2" data-name="矩形 102" transform="translate(744 2666)" fill="#fff" stroke="#707070" stroke-width="1">
        <rect width="162" height="100" stroke="none"/>
        <rect x="0.5" y="0.5" width="161" height="99" fill="none"/>
      </g>
    </g>
    <g id="组_21" data-name="组 21" transform="translate(-19)">
      <line id="直线_36" data-name="直线 36" y2="42" transform="translate(1275.5 2623.5)" fill="none" stroke="#707070" stroke-width="1"/>
      <g id="矩形_103" data-name="矩形 103" transform="translate(1194 2666)" fill="#fff" stroke="#707070" stroke-width="1">
        <rect width="162" height="100" stroke="none"/>
        <rect x="0.5" y="0.5" width="161" height="99" fill="none"/>
      </g>
    </g>
    <g id="组_31" data-name="组 31" transform="translate(-19 143)">
      <line id="直线_36-2" data-name="直线 36" y2="42" transform="translate(1275.5 2623.5)" fill="none" stroke="#707070" stroke-width="1"/>
      <g id="矩形_103-2" data-name="矩形 103" transform="translate(1194 2666)" fill="#fff" stroke="#707070" stroke-width="1">
        <rect width="162" height="100" stroke="none"/>
        <rect x="0.5" y="0.5" width="161" height="99" fill="none"/>
      </g>
    </g>
    <g id="组_20" data-name="组 20" transform="translate(-34)">
      <line id="直线_37" data-name="直线 37" y2="42" transform="translate(1093.5 2623.5)" fill="none" stroke="#707070" stroke-width="1"/>
      <g id="矩形_105" data-name="矩形 105" transform="translate(1012 2666)" fill="#fff" stroke="#707070" stroke-width="1">
        <rect width="162" height="100" stroke="none"/>
        <rect x="0.5" y="0.5" width="161" height="99" fill="none"/>
      </g>
    </g>
    <g id="组_30" data-name="组 30" transform="translate(-34 143)">
      <line id="直线_37-2" data-name="直线 37" y2="42" transform="translate(1093.5 2623.5)" fill="none" stroke="#707070" stroke-width="1"/>
      <g id="矩形_105-2" data-name="矩形 105" transform="translate(1012 2666)" fill="#fff" stroke="#707070" stroke-width="1">
        <rect width="162" height="100" stroke="none"/>
        <rect x="0.5" y="0.5" width="161" height="99" fill="none"/>
      </g>
    </g>
    <g id="组_22" data-name="组 22">
      <line id="直线_33" data-name="直线 33" y2="42" transform="translate(1453.5 2623.5)" fill="none" stroke="#707070" stroke-width="1"/>
      <g id="矩形_104" data-name="矩形 104" transform="translate(1372 2666)" fill="#fff" stroke="#707070" stroke-width="1">
        <rect width="162" height="100" stroke="none"/>
        <rect x="0.5" y="0.5" width="161" height="99" fill="none"/>
      </g>
    </g>
    <g id="组_32" data-name="组 32" transform="translate(0 143)">
      <line id="直线_33-2" data-name="直线 33" y2="42" transform="translate(1453.5 2623.5)" fill="none" stroke="#707070" stroke-width="1"/>
      <g id="矩形_104-2" data-name="矩形 104" transform="translate(1372 2666)" fill="#fff" stroke="#707070" stroke-width="1">
        <rect width="162" height="100" stroke="none"/>
        <rect x="0.5" y="0.5" width="161" height="99" fill="none"/>
      </g>
    </g>
    <text id="名称名称" transform="translate(433 2723)" font-size="18" font-family="PingFangSC-Regular, PingFang SC"><tspan x="0" y="0">名称名称</tspan></text>
    <text id="名称名称-2" data-name="名称名称" transform="translate(630 2723)" font-size="18" font-family="PingFangSC-Regular, PingFang SC"><tspan x="0" y="0">名称名称</tspan></text>
    <text id="名称名称-3" data-name="名称名称" transform="translate(827 2723)" font-size="18" font-family="PingFangSC-Regular, PingFang SC"><tspan x="0" y="0">名称名称</tspan></text>
    <text id="名称名称-4" data-name="名称名称" transform="translate(1023 2723)" font-size="18" font-family="PingFangSC-Regular, PingFang SC"><tspan x="0" y="0">名称名称</tspan></text>
    <text id="名称名称-5" data-name="名称名称" transform="translate(1220 2723)" font-size="18" font-family="PingFangSC-Regular, PingFang SC"><tspan x="0" y="0">名称名称</tspan></text>
    <text id="名称名称-6" data-name="名称名称" transform="translate(1417 2723)" font-size="18" font-family="PingFangSC-Regular, PingFang SC"><tspan x="0" y="0">名称名称</tspan></text>
    <text id="名称名称-7" data-name="名称名称" transform="translate(433 2858)" font-size="18" font-family="PingFangSC-Regular, PingFang SC"><tspan x="0" y="0">名称名称</tspan></text>
    <text id="名称名称-8" data-name="名称名称" transform="translate(630 2858)" font-size="18" font-family="PingFangSC-Regular, PingFang SC"><tspan x="0" y="0">名称名称</tspan></text>
    <text id="名称名称-9" data-name="名称名称" transform="translate(827 2858)" font-size="18" font-family="PingFangSC-Regular, PingFang SC"><tspan x="0" y="0">名称名称</tspan></text>
    <text id="名称名称-10" data-name="名称名称" transform="translate(1023 2858)" font-size="18" font-family="PingFangSC-Regular, PingFang SC"><tspan x="0" y="0">名称名称</tspan></text>
    <text id="名称名称-11" data-name="名称名称" transform="translate(1220 2858)" font-size="18" font-family="PingFangSC-Regular, PingFang SC"><tspan x="0" y="0">名称名称</tspan></text>
    <text id="名称名称-12" data-name="名称名称" transform="translate(1417 2858)" font-size="18" font-family="PingFangSC-Regular, PingFang SC"><tspan x="0" y="0">名称名称</tspan></text>
  </g>
</svg>
