<?xml version="1.0" standalone="no"?><!DOCTYPE svg PUBLIC "-//W3C//DTD SVG 1.1//EN" "http://www.w3.org/Graphics/SVG/1.1/DTD/svg11.dtd"><svg class="icon" width="32px" height="32.00px" viewBox="0 0 1024 1024" version="1.1" xmlns="http://www.w3.org/2000/svg"><path d="M896 810.666667H128V213.333333h768v597.333334m42.666667 42.666666V170.666667H85.333333v682.666666z"  /><path d="M512 384a85.333333 85.333333 0 1 1-85.333333 85.333333 85.333333 85.333333 0 0 1 85.333333-85.333333m0-42.666667a128 128 0 1 0 128 128 128 128 0 0 0-128-128z"  /><path d="M618.666667 459.093333l309.76-162.986666-20.053334-37.546667-303.573333 159.146667a106.666667 106.666667 0 0 1 13.866667 41.386666zM419.2 417.706667L116.693333 258.56l-20.053333 37.546667 309.76 162.986666a106.666667 106.666667 0 0 1 12.8-41.386666z"  /></svg>