<svg xmlns="http://www.w3.org/2000/svg" width="152.001" height="88" viewBox="0 0 152.001 88">
  <g id="框-灰色" transform="translate(7960)" fill="#fff">
    <path d="M -7883.49267578125 87.11876678466797 L -7890.98388671875 76.23822784423828 L -7891.1328125 76.02177429199219 L -7891.3955078125 76.02177429199219 L -7959.50048828125 76.02177429199219 L -7959.50048828125 0.5000108480453491 L -7808.49951171875 0.5000108480453491 L -7808.49951171875 76.02177429199219 L -7875.59130859375 76.02177429199219 L -7875.85400390625 76.02177429199219 L -7876.0029296875 76.23827362060547 L -7883.49267578125 87.11876678466797 Z" stroke="none"/>
    <path d="M -7883.49267578125 86.23699951171875 L -7876.4150390625 75.95477294921875 L -7876.1171875 75.52177429199219 L -7875.59130859375 75.52177429199219 L -7808.99951171875 75.52177429199219 L -7808.99951171875 1.000010848045349 L -7959.00048828125 1.000010848045349 L -7959.00048828125 75.52177429199219 L -7891.3955078125 75.52177429199219 L -7890.8701171875 75.52177429199219 L -7890.57177734375 75.95468902587891 L -7883.49267578125 86.23699951171875 M -7883.49267578125 88.00054931640625 L -7891.3955078125 76.52177429199219 L -7960.00048828125 76.52177429199219 L -7960.00048828125 1.084350606106455e-05 L -7807.99951171875 1.084350606106455e-05 L -7807.99951171875 76.52177429199219 L -7875.59130859375 76.52177429199219 L -7883.49267578125 88.00054931640625 Z" stroke="none" fill="#dfdfdf"/>
  </g>
</svg>
